<?xml version="1.0" encoding="UTF-8"?> <svg xmlns="http://www.w3.org/2000/svg" xmlns:xlink="http://www.w3.org/1999/xlink" id="Layer_1" version="1.1" viewBox="0 0 2150 1288"><defs><style> .st0, .st1, .st2, .st3, .st4, .st5, .st6, .st7 { fill-rule: evenodd; } .st0, .st2, .st8 { fill: #fff; } .st9 { fill: #1b2838; } .st1, .st3 { fill: #f0f6ff; } .st10 { isolation: isolate; } .st11 { stroke-dasharray: 9.2 9.2; stroke-width: 9.2px; } .st11, .st2, .st12, .st3, .st6 { stroke: #8b8b98; stroke-miterlimit: 8; } .st11, .st12 { fill: none; } .st2, .st12, .st3, .st6 { stroke-width: 4.6px; } .st13 { fill: #8b8b98; } .st4 { fill: #66b3cb; } .st5 { fill: #f6faff; } .st6, .st7 { fill: #0080a9; } </style></defs><path class="st2" d="M5.5,334.5c0-19.3,15.7-35,35-35h2071.1c19.3,0,35,15.7,35,35v536.1c0,19.3-15.6,35-35,35H40.5c-19.3,0-35-15.7-35-35V334.5Z"></path><g class="st10"><path class="st9" d="M51.2,336.3h12.2c4.3,0,7.4.9,9.4,2.6,2,1.7,3,4.4,3,8.1v7.4c0,3.7-1,6.4-3,8.1-2,1.7-5.1,2.6-9.4,2.6h-12.2v-28.7ZM56.3,360.7h6c2.5,0,4.4-.5,5.4-1.4,1.1-1,1.6-2.5,1.6-4.8v-7.6c0-2.2-.5-3.8-1.6-4.8-1.1-.9-2.9-1.4-5.4-1.4h-6l1.4-3.3v26.6l-1.4-3.3Z"></path><path class="st9" d="M88,334.1v6h-7v-6h7ZM87.8,342.9v22.1h-6.4v-22.1h6.4Z"></path><path class="st9" d="M103.5,365.4c-3.5,0-6.2-.6-8-1.7-1.8-1.1-2.9-2.9-3.3-5.3l6.7-.3c.1,1.2.6,2.1,1.3,2.7.8.6,1.8.9,3.2.9s2.3-.2,3.1-.7c.7-.5,1.1-1.1,1.1-1.9s-.3-1.3-.8-1.6c-.5-.4-1.3-.7-2.1-.9-.9-.2-1.8-.4-2.9-.6-1.1-.2-2.1-.4-3.2-.6s-2-.6-2.9-1.1c-.9-.5-1.6-1.1-2.1-1.9-.5-.8-.8-1.9-.8-3.3,0-2.2.9-3.8,2.8-4.9,1.8-1.1,4.6-1.7,8.2-1.7s4.1.2,5.7.7c1.6.5,2.8,1.2,3.7,2.2.9,1,1.5,2.2,1.7,3.7l-6.7.3c0-1-.5-1.8-1.2-2.4-.7-.5-1.7-.8-3-.8s-2.3.2-3,.7c-.7.5-1.1,1.1-1.1,2s.3,1.3.8,1.7c.5.4,1.2.7,2.1.9.9.2,1.9.4,2.9.6,1.1.2,2.1.4,3.2.6,1.1.2,2,.6,2.9,1.1.9.5,1.6,1.1,2.2,2,.5.8.8,1.9.8,3.3,0,2.1-.9,3.8-2.8,4.9-1.9,1.1-4.6,1.7-8.3,1.7Z"></path><path class="st9" d="M116.6,342.9h15.8v4.5h-15.8v-4.5ZM127.2,365.4c-2.4,0-4.1-.6-5.2-1.8-1.1-1.2-1.6-3-1.6-5.5v-14.4l1.8-6.1h4.6v19.4c0,1.3.2,2.2.7,2.7.5.5,1.3.8,2.5.8s.8,0,1.3-.1c.5,0,.9-.2,1.4-.4l.8,4.1c-.6.2-1.2.5-1.9.7-.7.2-1.4.3-2.2.5-.8.1-1.5.2-2.2.2Z"></path><path class="st9" d="M137,342.9h5.1l1.4,8.6v13.6h-6.4v-22.1ZM141.9,353.6c0-3.7.7-6.5,2-8.4,1.3-1.9,3.2-2.8,5.8-2.8s.9,0,1.4,0c.5,0,.9.2,1.4.3l-.4,5.5c-.9-.2-1.8-.3-2.8-.3-1.9,0-3.4.6-4.4,1.8-1,1.2-1.5,3.1-1.5,5.6l-1.5-1.7Z"></path><path class="st9" d="M162,334.1v6h-7v-6h7ZM161.7,342.9v22.1h-6.4v-22.1h6.4Z"></path><path class="st9" d="M167.8,334.7h6.4v23.9l-2.4,6.5h-4.1v-30.3ZM182.6,365.4c-2.2,0-4.2-.4-5.8-1.3-1.7-.9-3-2.1-3.9-3.7-.9-1.6-1.4-3.5-1.4-5.6v-1.7c0-2.2.5-4,1.4-5.6.9-1.6,2.2-2.8,3.8-3.7,1.6-.9,3.6-1.3,5.7-1.3,3.2,0,5.6.9,7.3,2.6,1.7,1.8,2.6,4.3,2.6,7.5v2.7c0,3.2-.8,5.7-2.5,7.5-1.7,1.8-4.1,2.6-7.2,2.6ZM180.7,360.8c1.6,0,2.9-.5,3.8-1.5.9-1,1.4-2.4,1.4-4.2v-2.2c0-1.8-.5-3.2-1.4-4.2-.9-1-2.2-1.5-3.8-1.5s-3.6.6-4.8,1.7c-1.2,1.1-1.7,2.7-1.7,4.6v.9c0,2,.6,3.6,1.7,4.7,1.2,1.1,2.8,1.7,4.8,1.7Z"></path><path class="st9" d="M203.6,354.8c0,2,.4,3.4,1.1,4.3.7.9,1.9,1.4,3.5,1.4s3.4-.7,4.4-2,1.5-3.3,1.5-5.8l2.3-3.3v2.8c0,4.3-.9,7.5-2.7,9.8-1.8,2.3-4.4,3.4-7.8,3.4s-5.3-.8-6.7-2.3c-1.4-1.6-2.1-4-2.1-7.3v-12.9h6.4v12ZM220.6,365h-5.1l-1.4-6.6v-15.5h6.5v22.1Z"></path><path class="st9" d="M224,342.9h15.8v4.5h-15.8v-4.5ZM234.6,365.4c-2.4,0-4.1-.6-5.2-1.8-1.1-1.2-1.6-3-1.6-5.5v-14.4l1.8-6.1h4.6v19.4c0,1.3.2,2.2.7,2.7.5.5,1.3.8,2.5.8s.8,0,1.3-.1c.5,0,.9-.2,1.4-.4l.8,4.1c-.6.2-1.2.5-1.9.7-.7.2-1.4.3-2.2.5-.8.1-1.5.2-2.2.2Z"></path><path class="st9" d="M254.4,365.4c-2.4,0-4.5-.4-6.2-1.2-1.7-.8-3-1.9-3.9-3.5-.9-1.5-1.4-3.3-1.4-5.5v-2.7c0-2.1.5-3.9,1.4-5.4,1-1.5,2.3-2.7,4.1-3.5,1.8-.8,3.9-1.2,6.4-1.2,3.8,0,6.7,1,8.8,2.9,2.1,1.9,3.1,4.7,3.1,8.3v1.8h-18.6v-3.2h13.5l-.9,1.2v-1.3c0-1.6-.5-2.9-1.5-3.9-1-.9-2.4-1.4-4.2-1.4s-3.2.5-4.2,1.4c-1,1-1.5,2.3-1.5,4v3.6c0,1.7.5,3,1.5,3.9,1,.9,2.3,1.4,4.1,1.4s2.7-.3,3.7-.9,1.5-1.4,1.8-2.5l6.1.4c-.6,2.3-2,4.1-4.1,5.3-2.1,1.2-4.8,1.8-8,1.8Z"></path><path class="st9" d="M280.8,365.4c-3.1,0-5.5-.9-7.2-2.6s-2.5-4.3-2.5-7.5v-2.7c0-3.2.9-5.7,2.6-7.5,1.7-1.8,4.2-2.6,7.3-2.6s4.1.4,5.7,1.3c1.6.9,2.9,2.1,3.8,3.7.9,1.6,1.4,3.5,1.4,5.6v1.7c0,2.2-.5,4-1.4,5.6-.9,1.6-2.2,2.8-3.9,3.7-1.7.9-3.6,1.3-5.8,1.3ZM282.6,360.8c2.1,0,3.6-.6,4.8-1.7,1.1-1.1,1.7-2.7,1.7-4.7v-.9c0-2-.6-3.5-1.7-4.6-1.2-1.1-2.8-1.7-4.8-1.7s-2.8.5-3.8,1.5c-.9,1-1.4,2.4-1.4,4.2v2.2c0,1.8.5,3.2,1.4,4.2.9,1,2.2,1.5,3.8,1.5ZM289.1,358.5v-23.9h6.5v30.3h-4.1l-2.4-6.5Z"></path><path class="st9" d="M323.3,365.4c-2.6,0-4.8-.5-6.6-1.4-1.8-.9-3.2-2.3-4.2-4-1-1.8-1.4-3.9-1.4-6.4v-6c0-2.5.5-4.6,1.5-6.3,1-1.7,2.4-3.1,4.2-4,1.8-.9,4-1.4,6.6-1.4,3.7,0,6.6.8,8.6,2.4,2,1.6,3.3,3.9,3.8,7l-6.3.6c-.3-1.9-.9-3.2-1.9-4.1-.9-.9-2.3-1.3-4-1.3s-3.5.6-4.5,1.8c-1.1,1.2-1.6,3-1.6,5.4v5.7c0,2.5.5,4.3,1.5,5.6,1,1.2,2.5,1.8,4.5,1.8s3.2-.5,4.1-1.4c1-1,1.6-2.4,1.9-4.4l6.2.6c-.5,3.1-1.7,5.6-3.8,7.3-2.1,1.7-5,2.5-8.8,2.5Z"></path><path class="st9" d="M347.7,365.4c-2.6,0-4.6-.6-6.1-1.7-1.5-1.1-2.2-2.7-2.2-4.7v-.8c0-2.1.7-3.6,2.2-4.8s3.6-1.7,6.2-1.7,5.1.5,6.7,1.6c1.6,1.1,2.4,2.7,2.4,4.7v.9c0,2-.8,3.6-2.4,4.8-1.6,1.1-3.9,1.7-6.8,1.7ZM354.7,357v-5.4c0-1.6-.5-2.7-1.4-3.5-1-.7-2.5-1.1-4.6-1.1s-2.6.2-3.9.5-2.6.8-3.7,1.5l-.9-4.4c.9-.4,1.9-.8,3-1.1,1.1-.3,2.3-.6,3.6-.8,1.2-.2,2.4-.3,3.5-.3,3.7,0,6.5.8,8.3,2.3,1.8,1.5,2.7,3.8,2.7,6.9v13.3h-5.1l-1.6-8ZM349.6,362c1.5,0,2.7-.3,3.6-.9.9-.6,1.3-1.4,1.3-2.5v-.5c0-1-.4-1.8-1.3-2.3-.8-.6-2-.8-3.5-.8s-2.5.3-3.2.8c-.8.5-1.1,1.4-1.1,2.5v.4c0,1.1.4,1.9,1.1,2.5.7.6,1.8.9,3.1.9Z"></path><path class="st9" d="M377.8,365.4c-2.4,0-4.5-.4-6.3-1.2-1.7-.8-3.1-2-4-3.5-.9-1.5-1.4-3.3-1.4-5.4v-2.7c0-2.1.5-3.9,1.4-5.4.9-1.5,2.3-2.7,4.1-3.5,1.8-.8,3.8-1.2,6.3-1.2,3.6,0,6.5.8,8.6,2.3,2.1,1.5,3.3,3.6,3.6,6.3l-6.2.5c-.3-1.4-.9-2.6-1.8-3.4-.9-.8-2.2-1.2-3.8-1.2s-3.1.5-4.1,1.5-1.5,2.4-1.5,4.1v2.9c0,1.7.5,3.1,1.5,4.1,1,1,2.4,1.5,4.1,1.5s2.8-.4,3.8-1.2c.9-.8,1.6-1.9,1.8-3.4l6.2.5c-.2,2.6-1.4,4.7-3.6,6.3s-5,2.3-8.6,2.3Z"></path><path class="st9" d="M394.3,334.7h6.4v30.3h-6.4v-30.3ZM411.2,353.1c0-2-.4-3.5-1.1-4.4-.8-.9-1.9-1.4-3.6-1.4s-3.3.7-4.3,2c-1,1.3-1.5,3.3-1.5,5.9l-2.3,3.3v-2.8c0-4.3,1-7.6,2.8-9.8,1.8-2.3,4.5-3.4,7.9-3.4s5.1.8,6.5,2.3c1.4,1.6,2.1,4,2.1,7.3v12.9h-6.4v-11.9Z"></path><path class="st9" d="M433.9,365.4c-2.4,0-4.5-.4-6.2-1.2-1.7-.8-3-1.9-3.9-3.5-.9-1.5-1.4-3.3-1.4-5.5v-2.7c0-2.1.5-3.9,1.4-5.4,1-1.5,2.3-2.7,4.1-3.5,1.8-.8,3.9-1.2,6.4-1.2,3.8,0,6.7,1,8.8,2.9s3.1,4.7,3.1,8.3v1.8h-18.6v-3.2h13.5l-.9,1.2v-1.3c0-1.6-.5-2.9-1.5-3.9-1-.9-2.4-1.4-4.2-1.4s-3.2.5-4.2,1.4c-1,1-1.5,2.3-1.5,4v3.6c0,1.7.5,3,1.5,3.9,1,.9,2.3,1.4,4.1,1.4s2.7-.3,3.7-.9,1.5-1.4,1.8-2.5l6.1.4c-.6,2.3-2,4.1-4.1,5.3-2.1,1.2-4.8,1.8-8,1.8Z"></path></g><path class="st3" d="M56.5,589.4c0-18.8,15.2-33.9,33.9-33.9h313.1c18.7,0,33.9,15.2,33.9,33.9v66.1c0,18.8-15.2,33.9-33.9,33.9H90.4c-18.7,0-33.9-15.2-33.9-33.9v-66.1Z"></path><g class="st10"><path class="st9" d="M198.3,605.4v33.6h-5.1l-16.8-27.5h-.2v27.5h-4.2v-33.6h5.1l16.8,27.5h.2v-27.5h4.2Z"></path><path class="st9" d="M218,639.4c-2.6,0-4.8-.4-6.7-1.3-1.9-.9-3.3-2.2-4.3-3.8-1-1.7-1.5-3.6-1.5-5.9v-4.6c0-2.3.5-4.2,1.5-5.9,1-1.6,2.4-2.9,4.3-3.8,1.9-.9,4.1-1.3,6.6-1.3s4.8.4,6.7,1.3c1.9.9,3.3,2.2,4.3,3.8,1,1.7,1.5,3.6,1.5,5.9v4.6c0,2.3-.5,4.2-1.5,5.9-1,1.7-2.4,2.9-4.3,3.8-1.9.9-4.1,1.3-6.7,1.3ZM218,635.9c2.6,0,4.6-.7,6.1-2,1.5-1.4,2.2-3.2,2.2-5.6v-4.5c0-2.4-.7-4.2-2.2-5.6-1.5-1.4-3.5-2-6.1-2s-4.5.7-6,2.1c-1.5,1.4-2.3,3.2-2.3,5.6v4.5c0,2.3.8,4.2,2.3,5.6,1.5,1.4,3.5,2.1,6,2.1Z"></path><path class="st9" d="M247.4,639.4c-3.4,0-6-1-7.9-2.9-1.9-1.9-2.8-4.6-2.8-8.2v-4.6c0-3.5.9-6.2,2.8-8.2,1.9-1.9,4.5-2.9,7.9-2.9s4.5.5,6.3,1.5c1.8,1,3.2,2.4,4.2,4.2,1,1.8,1.5,3.9,1.5,6.4v2.4c0,2.5-.5,4.6-1.5,6.5-1,1.8-2.4,3.3-4.2,4.3-1.8,1-3.9,1.5-6.3,1.5ZM248.1,636.2c2.9,0,5.2-.8,6.9-2.5,1.7-1.7,2.5-4,2.5-7v-1.4c0-2.9-.8-5.2-2.5-6.9-1.7-1.7-4-2.5-6.9-2.5s-4,.7-5.2,2.2c-1.2,1.4-1.9,3.5-1.9,6.1v3.8c0,2.6.6,4.6,1.9,6,1.3,1.4,3,2.2,5.2,2.2ZM257.5,630.9v-27.4h4.2v35.5h-2.5l-1.6-8.1Z"></path><path class="st9" d="M280.6,639.4c-2.5,0-4.6-.4-6.4-1.3-1.7-.8-3.1-2.1-4-3.7-.9-1.6-1.4-3.6-1.4-6v-4.7c0-2.3.5-4.2,1.5-5.9,1-1.6,2.4-2.9,4.2-3.8,1.8-.9,4-1.3,6.5-1.3,3.8,0,6.8,1,8.9,3,2.1,2,3.1,4.9,3.1,8.7v2.9h-20.8v-2.7h17.4l-.7,1.1v-2.3c0-2.3-.7-4.2-2.1-5.5-1.4-1.3-3.3-2-5.8-2s-4.5.7-6,2c-1.4,1.3-2.1,3.2-2.1,5.7v5.1c0,2.4.7,4.2,2,5.5,1.4,1.3,3.3,1.9,5.7,1.9s4-.4,5.4-1.3c1.4-.9,2.2-2.2,2.5-3.8l4,.2c-.6,2.6-1.9,4.6-4,6-2.1,1.4-4.8,2.1-8,2.1Z"></path><path class="st9" d="M320.3,639h-4.2v-31.9l1.6,1.9-8.2,1.2-.3-3,9-2h2.1v33.7Z"></path></g><path class="st3" d="M516.5,589.4c0-18.8,15.2-33.9,33.9-33.9h313.1c18.8,0,33.9,15.2,33.9,33.9v66.1c0,18.8-15.2,33.9-33.9,33.9h-313.1c-18.8,0-33.9-15.2-33.9-33.9v-66.1Z"></path><g class="st10"><path class="st9" d="M652.2,605.4v33.6h-5.1l-16.8-27.5h-.2v27.5h-4.2v-33.6h5.1l16.8,27.5h.2v-27.5h4.2Z"></path><path class="st9" d="M671.9,639.4c-2.6,0-4.8-.4-6.7-1.3-1.9-.9-3.3-2.2-4.3-3.8-1-1.7-1.5-3.6-1.5-5.9v-4.6c0-2.3.5-4.2,1.5-5.9,1-1.6,2.4-2.9,4.3-3.8,1.9-.9,4.1-1.3,6.6-1.3s4.8.4,6.7,1.3c1.9.9,3.3,2.2,4.3,3.8,1,1.7,1.5,3.6,1.5,5.9v4.6c0,2.3-.5,4.2-1.5,5.9-1,1.7-2.4,2.9-4.3,3.8-1.9.9-4.1,1.3-6.7,1.3ZM671.9,635.9c2.6,0,4.6-.7,6.1-2,1.5-1.4,2.2-3.2,2.2-5.6v-4.5c0-2.4-.7-4.2-2.2-5.6-1.5-1.4-3.5-2-6.1-2s-4.5.7-6,2.1c-1.5,1.4-2.3,3.2-2.3,5.6v4.5c0,2.3.8,4.2,2.3,5.6,1.5,1.4,3.5,2.1,6,2.1Z"></path><path class="st9" d="M701.3,639.4c-3.4,0-6-1-7.9-2.9-1.9-1.9-2.8-4.6-2.8-8.2v-4.6c0-3.5.9-6.2,2.8-8.2,1.9-1.9,4.5-2.9,7.9-2.9s4.5.5,6.3,1.5c1.8,1,3.2,2.4,4.2,4.2,1,1.8,1.5,3.9,1.5,6.4v2.4c0,2.5-.5,4.6-1.5,6.5-1,1.8-2.4,3.3-4.2,4.3-1.8,1-3.9,1.5-6.3,1.5ZM701.9,636.2c2.9,0,5.2-.8,6.9-2.5,1.7-1.7,2.5-4,2.5-7v-1.4c0-2.9-.8-5.2-2.5-6.9-1.7-1.7-4-2.5-6.9-2.5s-4,.7-5.2,2.2c-1.2,1.4-1.9,3.5-1.9,6.1v3.8c0,2.6.6,4.6,1.9,6,1.3,1.4,3,2.2,5.2,2.2ZM711.3,630.9v-27.4h4.2v35.5h-2.5l-1.6-8.1Z"></path><path class="st9" d="M734.5,639.4c-2.5,0-4.6-.4-6.4-1.3-1.7-.8-3.1-2.1-4-3.7-.9-1.6-1.4-3.6-1.4-6v-4.7c0-2.3.5-4.2,1.5-5.9,1-1.6,2.4-2.9,4.2-3.8,1.8-.9,4-1.3,6.5-1.3,3.8,0,6.8,1,8.9,3,2.1,2,3.1,4.9,3.1,8.7v2.9h-20.8v-2.7h17.4l-.7,1.1v-2.3c0-2.3-.7-4.2-2.1-5.5-1.4-1.3-3.3-2-5.8-2s-4.5.7-6,2c-1.4,1.3-2.1,3.2-2.1,5.7v5.1c0,2.4.7,4.2,2,5.5,1.4,1.3,3.3,1.9,5.7,1.9s4-.4,5.4-1.3c1.4-.9,2.2-2.2,2.5-3.8l4,.2c-.6,2.6-1.9,4.6-4,6-2.1,1.4-4.8,2.1-8,2.1Z"></path><path class="st9" d="M764,636.6l14-12.8c1.4-1.3,2.5-2.4,3.4-3.3.8-.9,1.5-1.7,2-2.4.5-.7.8-1.3,1-1.9.2-.6.3-1.3.3-2v-.7c0-1.7-.7-3-2.1-3.9-1.4-.9-3.4-1.4-5.9-1.4s-4.1.6-5.6,1.8-2.4,2.9-2.9,5.1l-4-.4c.6-3.1,1.9-5.5,4.1-7.2,2.1-1.7,4.9-2.5,8.3-2.5s6.9.7,9,2.2c2.1,1.5,3.2,3.6,3.2,6.2v.7c0,1.3-.2,2.5-.6,3.5-.4,1.1-1,2.2-2,3.3-1,1.2-2.4,2.6-4.2,4.3l-13.9,12.9-1.2-2.5h22.1v3.4h-24.8v-2.4Z"></path></g><path class="st3" d="M976.5,589.4c0-18.8,15.2-33.9,33.9-33.9h312.1c18.8,0,33.9,15.2,33.9,33.9v66.1c0,18.8-15.2,33.9-33.9,33.9h-312.1c-18.8,0-33.9-15.2-33.9-33.9v-66.1Z"></path><g class="st10"><path class="st9" d="M1110.4,605.4v33.6h-5.1l-16.8-27.5h-.2v27.5h-4.2v-33.6h5.1l16.8,27.5h.2v-27.5h4.2Z"></path><path class="st9" d="M1130,639.4c-2.6,0-4.8-.4-6.7-1.3-1.9-.9-3.3-2.2-4.3-3.8-1-1.7-1.5-3.6-1.5-5.9v-4.6c0-2.3.5-4.2,1.5-5.9s2.4-2.9,4.3-3.8c1.9-.9,4.1-1.3,6.6-1.3s4.8.4,6.7,1.3c1.9.9,3.3,2.2,4.3,3.8,1,1.7,1.5,3.6,1.5,5.9v4.6c0,2.3-.5,4.2-1.5,5.9-1,1.7-2.4,2.9-4.3,3.8-1.9.9-4.1,1.3-6.7,1.3ZM1130,635.9c2.6,0,4.6-.7,6.1-2,1.5-1.4,2.2-3.2,2.2-5.6v-4.5c0-2.4-.7-4.2-2.2-5.6s-3.5-2-6.1-2-4.5.7-6,2.1c-1.5,1.4-2.3,3.2-2.3,5.6v4.5c0,2.3.8,4.2,2.3,5.6,1.5,1.4,3.5,2.1,6,2.1Z"></path><path class="st9" d="M1159.5,639.4c-3.4,0-6-1-7.9-2.9-1.9-1.9-2.8-4.6-2.8-8.2v-4.6c0-3.5.9-6.2,2.8-8.2,1.9-1.9,4.5-2.9,7.9-2.9s4.5.5,6.3,1.5c1.8,1,3.2,2.4,4.2,4.2,1,1.8,1.5,3.9,1.5,6.4v2.4c0,2.5-.5,4.6-1.5,6.5-1,1.8-2.4,3.3-4.2,4.3s-3.9,1.5-6.3,1.5ZM1160.1,636.2c2.9,0,5.2-.8,6.9-2.5,1.7-1.7,2.5-4,2.5-7v-1.4c0-2.9-.8-5.2-2.5-6.9-1.7-1.7-4-2.5-6.9-2.5s-4,.7-5.2,2.2c-1.2,1.4-1.9,3.5-1.9,6.1v3.8c0,2.6.6,4.6,1.9,6,1.3,1.4,3,2.2,5.2,2.2ZM1169.5,630.9v-27.4h4.2v35.5h-2.5l-1.6-8.1Z"></path><path class="st9" d="M1192.6,639.4c-2.5,0-4.6-.4-6.4-1.3s-3.1-2.1-4-3.7c-.9-1.6-1.4-3.6-1.4-6v-4.7c0-2.3.5-4.2,1.5-5.9,1-1.6,2.4-2.9,4.2-3.8,1.8-.9,4-1.3,6.5-1.3,3.8,0,6.8,1,8.9,3s3.1,4.9,3.1,8.7v2.9h-20.8v-2.7h17.4l-.7,1.1v-2.3c0-2.3-.7-4.2-2.1-5.5-1.4-1.3-3.3-2-5.8-2s-4.5.7-6,2c-1.4,1.3-2.1,3.2-2.1,5.7v5.1c0,2.4.7,4.2,2,5.5,1.4,1.3,3.3,1.9,5.7,1.9s4-.4,5.4-1.3c1.4-.9,2.2-2.2,2.5-3.8l4,.2c-.6,2.6-1.9,4.6-4,6-2.1,1.4-4.8,2.1-8,2.1Z"></path><path class="st9" d="M1236.1,639.4c-3.7,0-6.6-.8-8.8-2.4-2.1-1.6-3.5-4-4.1-7.2l4.1-.4c.5,2.3,1.4,4,2.9,5.1,1.4,1.1,3.4,1.7,6,1.7s5.3-.5,6.7-1.5c1.4-1,2.1-2.5,2.1-4.5v-.8c0-2.1-.8-3.7-2.3-4.7-1.6-1.1-3.8-1.6-6.8-1.6h-5.3v-2.9h5.3c2.9,0,5-.5,6.4-1.4,1.4-.9,2.1-2.4,2.1-4.3v-.7c0-1.7-.7-3-2.1-3.9-1.4-.9-3.4-1.4-6-1.4s-4.2.6-5.7,1.8c-1.4,1.2-2.4,2.9-2.8,5l-4-.4c.6-3.1,2-5.5,4.1-7.2s4.9-2.5,8.4-2.5,6.9.7,9,2.2c2.1,1.5,3.2,3.5,3.2,6.1v.7c0,2-.6,3.7-1.8,5-1.2,1.3-3,2.2-5.4,2.8v-.9c2.6.6,4.5,1.6,5.9,3.1s2,3.3,2,5.4v.8c0,2.9-1.1,5.2-3.3,6.8-2.2,1.6-5.4,2.4-9.6,2.4Z"></path></g><path class="st3" d="M1718.5,589.4c0-18.8,15.2-33.9,33.9-33.9h312.1c18.8,0,33.9,15.2,33.9,33.9v66.1c0,18.8-15.2,33.9-33.9,33.9h-312.1c-18.8,0-33.9-15.2-33.9-33.9v-66.1Z"></path><g class="st10"><path class="st9" d="M1853.5,605.4v33.6h-5.1l-16.8-27.5h-.2v27.5h-4.2v-33.6h5.1l16.8,27.5h.2v-27.5h4.2Z"></path><path class="st9" d="M1873.2,639.4c-2.6,0-4.8-.4-6.7-1.3s-3.3-2.2-4.3-3.8c-1-1.7-1.5-3.6-1.5-5.9v-4.6c0-2.3.5-4.2,1.5-5.9,1-1.6,2.4-2.9,4.3-3.8,1.9-.9,4.1-1.3,6.6-1.3s4.8.4,6.7,1.3c1.9.9,3.3,2.2,4.3,3.8,1,1.7,1.5,3.6,1.5,5.9v4.6c0,2.3-.5,4.2-1.5,5.9-1,1.7-2.4,2.9-4.3,3.8-1.9.9-4.1,1.3-6.7,1.3ZM1873.2,635.9c2.6,0,4.6-.7,6.1-2,1.5-1.4,2.2-3.2,2.2-5.6v-4.5c0-2.4-.7-4.2-2.2-5.6-1.5-1.4-3.5-2-6.1-2s-4.5.7-6,2.1c-1.5,1.4-2.3,3.2-2.3,5.6v4.5c0,2.3.8,4.2,2.3,5.6s3.5,2.1,6,2.1Z"></path><path class="st9" d="M1902.7,639.4c-3.4,0-6-1-7.9-2.9s-2.8-4.6-2.8-8.2v-4.6c0-3.5.9-6.2,2.8-8.2s4.5-2.9,7.9-2.9,4.5.5,6.3,1.5c1.8,1,3.2,2.4,4.2,4.2,1,1.8,1.5,3.9,1.5,6.4v2.4c0,2.5-.5,4.6-1.5,6.5-1,1.8-2.4,3.3-4.2,4.3-1.8,1-3.9,1.5-6.3,1.5ZM1903.3,636.2c2.9,0,5.2-.8,6.9-2.5,1.7-1.7,2.5-4,2.5-7v-1.4c0-2.9-.8-5.2-2.5-6.9s-4-2.5-6.9-2.5-4,.7-5.2,2.2c-1.2,1.4-1.9,3.5-1.9,6.1v3.8c0,2.6.6,4.6,1.9,6,1.3,1.4,3,2.2,5.2,2.2ZM1912.7,630.9v-27.4h4.2v35.5h-2.5l-1.6-8.1Z"></path><path class="st9" d="M1935.8,639.4c-2.5,0-4.6-.4-6.4-1.3-1.7-.8-3.1-2.1-4-3.7-.9-1.6-1.4-3.6-1.4-6v-4.7c0-2.3.5-4.2,1.5-5.9,1-1.6,2.4-2.9,4.2-3.8,1.8-.9,4-1.3,6.5-1.3,3.8,0,6.8,1,8.9,3,2.1,2,3.1,4.9,3.1,8.7v2.9h-20.8v-2.7h17.4l-.7,1.1v-2.3c0-2.3-.7-4.2-2.1-5.5-1.4-1.3-3.3-2-5.8-2s-4.5.7-6,2c-1.4,1.3-2.1,3.2-2.1,5.7v5.1c0,2.4.7,4.2,2,5.5,1.4,1.3,3.3,1.9,5.7,1.9s4-.4,5.4-1.3c1.4-.9,2.2-2.2,2.5-3.8l4,.2c-.6,2.6-1.9,4.6-4,6-2.1,1.4-4.8,2.1-8,2.1Z"></path><path class="st9" d="M1965.8,628.2l8.2-22.8h4.1l-8.8,24.4-2.3-2.2h25.2v3.3h-26.4v-2.7ZM1984.2,616.9l1.2-3.3h3v25.3h-4.2v-22.1Z"></path></g><path class="st13" d="M244.9,534.2v-136.5h1671v131.9h-9.2v-127.3l4.6,4.6H249.5l4.6-4.6v131.9h-9.2ZM263.2,529.6l-13.8,27.5-13.8-27.5h27.5ZM1925,525l-13.8,27.5-13.8-27.5h27.5Z"></path><path class="st13" d="M244.9,708.4v136.5h1671v-131.9h-9.2v127.3l4.6-4.6H249.5l4.6,4.6v-131.9h-9.2ZM263.2,713l-13.8-27.5-13.8,27.5h27.5ZM1925,717.6l-13.8-27.5-13.8,27.5h27.5Z"></path><path class="st2" d="M949.5,132.5c0-22.1,17.9-40,40-40h311c22.1,0,40,17.9,40,40v78c0,22.1-17.9,40-40,40h-311c-22.1,0-40-17.9-40-40v-78Z"></path><path class="st3" d="M905.5,88.5c0-22.1,17.9-40,40-40h311c22.1,0,40,17.9,40,40v78c0,22.1-17.9,40-40,40h-311c-22.1,0-40-17.9-40-40v-78Z"></path><path class="st6" d="M861.5,44.5c0-22.1,17.9-40,40-40h311c22.1,0,40,17.9,40,40v78c0,22.1-17.9,40-40,40h-311c-22.1,0-40-17.9-40-40V44.5Z"></path><g class="st10"><path class="st8" d="M1007.6,66.4h6.4l11.7,33.6h-4.3l-10.6-30.6h-.2l-10.5,30.6h-4.3l11.8-33.6ZM1002.4,88h16.9v3.2h-16.9v-3.2Z"></path><path class="st8" d="M1030.3,74.1h2.6l1.5,8.1v26.4h-4.2v-34.6ZM1044.4,100.4c-2.4,0-4.5-.5-6.3-1.5-1.8-1-3.2-2.4-4.2-4.3-1-1.8-1.5-4-1.5-6.5v-2.4c0-2.5.5-4.6,1.5-6.4,1-1.8,2.4-3.2,4.2-4.2,1.8-1,3.9-1.5,6.3-1.5s6,1,7.8,2.9c1.8,1.9,2.8,4.6,2.8,8.2v4.6c0,3.5-.9,6.2-2.8,8.2-1.9,1.9-4.5,2.9-7.9,2.9ZM1043.9,97.2c2.2,0,4-.7,5.2-2.2,1.2-1.4,1.9-3.5,1.9-6v-3.8c0-2.6-.6-4.7-1.9-6.1-1.2-1.4-3-2.2-5.2-2.2s-5.2.8-6.9,2.5-2.5,4-2.5,6.9v1.4c0,2.9.8,5.3,2.5,7,1.7,1.7,4,2.5,6.9,2.5Z"></path><path class="st8" d="M1062.4,74.1h2.6l1.5,8.1v26.4h-4.2v-34.6ZM1076.5,100.4c-2.4,0-4.5-.5-6.3-1.5s-3.2-2.4-4.2-4.3c-1-1.8-1.5-4-1.5-6.5v-2.4c0-2.5.5-4.6,1.5-6.4,1-1.8,2.4-3.2,4.2-4.2,1.8-1,3.9-1.5,6.3-1.5s6,1,7.8,2.9c1.8,1.9,2.8,4.6,2.8,8.2v4.6c0,3.5-.9,6.2-2.8,8.2-1.9,1.9-4.5,2.9-7.9,2.9ZM1075.9,97.2c2.2,0,4-.7,5.2-2.2,1.2-1.4,1.9-3.5,1.9-6v-3.8c0-2.6-.6-4.7-1.9-6.1-1.2-1.4-3-2.2-5.2-2.2s-5.2.8-6.9,2.5c-1.7,1.7-2.5,4-2.5,6.9v1.4c0,2.9.8,5.3,2.5,7,1.7,1.7,4,2.5,6.9,2.5Z"></path><path class="st8" d="M1103.7,100.3c-3.4,0-6-.6-7.8-1.9-1.8-1.3-2.9-3.3-3.3-6h4.3c.2,1.6.8,2.9,2,3.7,1.1.8,2.7,1.2,4.8,1.2s3.6-.3,4.7-1c1.1-.7,1.7-1.7,1.7-3s-.3-1.8-.9-2.4-1.4-1-2.4-1.3c-1-.3-2.1-.5-3.3-.7-1.2-.2-2.4-.5-3.6-.7-1.2-.3-2.3-.7-3.3-1.2s-1.8-1.3-2.4-2.2c-.6-.9-.9-2.2-.9-3.8,0-2.4.9-4.2,2.7-5.4,1.8-1.2,4.5-1.8,7.9-1.8s4,.3,5.4.8c1.5.6,2.7,1.4,3.6,2.5.9,1.1,1.4,2.5,1.7,4.1l-4.3.2c-.1-1.5-.7-2.6-1.8-3.4s-2.5-1.2-4.5-1.2-3.6.4-4.7,1.1c-1.1.7-1.7,1.7-1.7,3s.3,1.9.9,2.4,1.4,1,2.4,1.3c1,.3,2.1.6,3.3.8,1.2.2,2.4.5,3.6.7s2.3.7,3.3,1.2c1,.5,1.8,1.3,2.4,2.2.6.9.9,2.2.9,3.7,0,2.3-.9,4.1-2.7,5.3-1.8,1.2-4.5,1.8-8,1.8Z"></path></g><path class="st13" d="M1061.1,185.4v195h-9.2v-195h9.2ZM1042.8,190l13.8-27.5,13.8,27.5h-27.5ZM1070.2,375.8l-13.8,27.5-13.8-27.5h27.5Z"></path><path class="st13" d="M1105.1,229.4v151h-9.2v-151h9.2ZM1086.8,234l13.8-27.5,13.8,27.5h-27.5ZM1114.2,375.8l-13.8,27.5-13.8-27.5h27.5Z"></path><path class="st13" d="M1149.1,273.4v106.9h-9.2v-106.9h9.2ZM1130.8,278l13.8-27.5,13.8,27.5h-27.5ZM1158.2,375.8l-13.8,27.5-13.8-27.5h27.5Z"></path><path class="st13" d="M711.1,402.5v129.3h-9.2v-129.3h9.2ZM720.2,527.2l-13.8,27.5-13.8-27.5h27.5Z"></path><path class="st13" d="M1171.1,402.5v129.3h-9.2v-129.3h9.2ZM1180.2,527.2l-13.8,27.5-13.8-27.5h27.5Z"></path><path class="st13" d="M711.1,840.4v-128s-9.2,0-9.2,0v128s9.2,0,9.2,0ZM720.3,717l-13.7-27.5-13.8,27.5h27.5Z"></path><path class="st13" d="M1171.1,840.4v-128s-9.2,0-9.2,0v128s9.2,0,9.2,0ZM1180.3,717l-13.7-27.5-13.8,27.5h27.5Z"></path><path class="st0" d="M960.5,983.4c0,15.9,87.5,28.9,195.5,28.9s195.5-12.9,195.5-28.9v173.2c0,15.9-87.5,28.9-195.5,28.9s-195.5-12.9-195.5-28.9v-173.2Z"></path><path class="st0" d="M960.5,983.4c0-15.9,87.5-28.9,195.5-28.9s195.5,12.9,195.5,28.9-87.5,28.9-195.5,28.9-195.5-12.9-195.5-28.9Z"></path><path class="st12" d="M1351.5,983.4c0,15.9-87.5,28.9-195.5,28.9s-195.5-12.9-195.5-28.9,87.5-28.9,195.5-28.9,195.5,12.9,195.5,28.9v173.2c0,15.9-87.5,28.9-195.5,28.9s-195.5-12.9-195.5-28.9v-173.2"></path><path class="st1" d="M905.5,1033.4c0,15.9,87.5,28.9,195.5,28.9s195.5-12.9,195.5-28.9v173.2c0,15.9-87.5,28.9-195.5,28.9s-195.5-12.9-195.5-28.9v-173.2Z"></path><path class="st5" d="M905.5,1033.4c0-15.9,87.5-28.9,195.5-28.9s195.5,12.9,195.5,28.9-87.5,28.9-195.5,28.9-195.5-12.9-195.5-28.9Z"></path><path class="st12" d="M1296.5,1033.4c0,15.9-87.5,28.9-195.5,28.9s-195.5-12.9-195.5-28.9,87.5-28.9,195.5-28.9,195.5,12.9,195.5,28.9v173.2c0,15.9-87.5,28.9-195.5,28.9s-195.5-12.9-195.5-28.9v-173.2"></path><path class="st7" d="M850.5,1082.4c0,15.9,87.5,28.9,195.5,28.9s195.5-12.9,195.5-28.9v173.2c0,15.9-87.5,28.9-195.5,28.9s-195.5-12.9-195.5-28.9v-173.2Z"></path><path class="st4" d="M850.5,1082.4c0-15.9,87.5-28.9,195.5-28.9s195.5,12.9,195.5,28.9-87.5,28.9-195.5,28.9-195.5-12.9-195.5-28.9Z"></path><path class="st12" d="M1241.5,1082.4c0,15.9-87.5,28.9-195.5,28.9s-195.5-12.9-195.5-28.9,87.5-28.9,195.5-28.9,195.5,12.9,195.5,28.9v173.2c0,15.9-87.5,28.9-195.5,28.9s-195.5-12.9-195.5-28.9v-173.2"></path><g class="st10"><path class="st8" d="M924.4,1166.4h11.8c4.5,0,7.8.9,9.8,2.8,2.1,1.8,3.1,4.8,3.1,8.8v10.5c0,4-1,7-3.1,8.8-2.1,1.8-5.4,2.8-9.8,2.8h-11.8v-33.6ZM927.7,1196.9h7.6c3.5,0,6-.6,7.5-1.9,1.5-1.3,2.2-3.4,2.2-6.5v-10.6c0-3-.7-5.2-2.2-6.5-1.5-1.3-4-1.9-7.5-1.9h-7.6l.9-2.4v32.2l-.9-2.4Z"></path><path class="st8" d="M964.1,1200.4c-2.8,0-4.9-.6-6.5-1.9-1.6-1.3-2.4-3.1-2.4-5.4v-1.3c0-2.3.8-4.1,2.4-5.4s3.8-1.9,6.7-1.9,5.5.6,7.3,1.8c1.8,1.2,2.7,3,2.7,5.3v1.4c0,2.3-.9,4.2-2.7,5.5-1.8,1.3-4.3,2-7.5,2ZM972.5,1191.4v-8.5c0-2-.6-3.5-1.7-4.5-1.1-.9-2.9-1.4-5.4-1.4s-3.1.2-4.6.6c-1.5.4-3,1-4.3,1.8l-.6-3.2c.9-.5,1.9-1,3.1-1.4,1.2-.4,2.4-.7,3.7-1,1.3-.2,2.5-.4,3.7-.4,3.5,0,6,.8,7.8,2.3s2.6,3.8,2.6,6.9v17.1h-2.9l-1.3-8.6ZM965.3,1197.6c2.2,0,4-.5,5.3-1.4,1.3-.9,1.9-2.2,1.9-3.7v-.7c0-1.5-.6-2.6-1.8-3.5-1.2-.8-2.9-1.2-5.1-1.2s-3.6.4-4.7,1.1c-1.1.8-1.6,2-1.6,3.8v.6c0,1.6.5,2.9,1.6,3.7,1.1.8,2.5,1.3,4.5,1.3Z"></path><path class="st8" d="M981.2,1174.1h15.5v3.2h-15.5v-3.2ZM992.8,1200.4c-2.4,0-4.1-.6-5.2-1.8-1.1-1.2-1.6-3-1.6-5.5v-18.7l1.2-6.6h3v24.8c0,1.6.3,2.8.8,3.4.6.6,1.6.9,3,.9s1,0,1.5,0c.5,0,1-.2,1.5-.3l.6,3.1c-.5.1-1,.3-1.5.4-.5.1-1.1.2-1.6.3-.6,0-1.1.1-1.6.1Z"></path><path class="st8" d="M1009.7,1200.4c-2.8,0-4.9-.6-6.5-1.9-1.6-1.3-2.4-3.1-2.4-5.4v-1.3c0-2.3.8-4.1,2.4-5.4s3.8-1.9,6.7-1.9,5.5.6,7.3,1.8c1.8,1.2,2.7,3,2.7,5.3v1.4c0,2.3-.9,4.2-2.7,5.5-1.8,1.3-4.3,2-7.5,2ZM1018.1,1191.4v-8.5c0-2-.6-3.5-1.7-4.5-1.1-.9-2.9-1.4-5.4-1.4s-3.1.2-4.6.6c-1.5.4-3,1-4.3,1.8l-.6-3.2c.9-.5,1.9-1,3.1-1.4,1.2-.4,2.4-.7,3.7-1,1.3-.2,2.5-.4,3.7-.4,3.5,0,6,.8,7.8,2.3s2.6,3.8,2.6,6.9v17.1h-2.9l-1.3-8.6ZM1010.9,1197.6c2.2,0,4-.5,5.3-1.4,1.3-.9,1.9-2.2,1.9-3.7v-.7c0-1.5-.6-2.6-1.8-3.5-1.2-.8-2.9-1.2-5.1-1.2s-3.6.4-4.7,1.1c-1.1.8-1.6,2-1.6,3.8v.6c0,1.6.5,2.9,1.6,3.7,1.1.8,2.5,1.3,4.5,1.3Z"></path><path class="st8" d="M1030,1164.5h4.2v27.4l-1.6,8.1h-2.5v-35.5ZM1044.3,1200.4c-2.4,0-4.5-.5-6.3-1.5-1.8-1-3.2-2.4-4.2-4.3-1-1.8-1.5-4-1.5-6.5v-2.4c0-2.5.5-4.6,1.5-6.4,1-1.8,2.4-3.2,4.2-4.2,1.8-1,3.9-1.5,6.3-1.5,3.4,0,6.1,1,7.9,2.9,1.9,1.9,2.8,4.6,2.8,8.2v4.6c0,3.5-.9,6.2-2.8,8.2-1.8,1.9-4.5,2.9-7.8,2.9ZM1043.6,1197.2c2.2,0,4-.7,5.2-2.2,1.2-1.4,1.9-3.5,1.9-6v-3.8c0-2.6-.6-4.7-1.9-6.1-1.2-1.4-3-2.2-5.2-2.2s-5.2.8-6.9,2.5c-1.7,1.7-2.5,4-2.5,6.9v1.4c0,2.9.8,5.3,2.5,7,1.7,1.7,4,2.5,6.9,2.5Z"></path><path class="st8" d="M1069.6,1200.4c-2.8,0-4.9-.6-6.5-1.9-1.6-1.3-2.4-3.1-2.4-5.4v-1.3c0-2.3.8-4.1,2.4-5.4s3.8-1.9,6.7-1.9,5.5.6,7.3,1.8c1.8,1.2,2.7,3,2.7,5.3v1.4c0,2.3-.9,4.2-2.7,5.5-1.8,1.3-4.3,2-7.5,2ZM1078,1191.4v-8.5c0-2-.6-3.5-1.7-4.5-1.1-.9-2.9-1.4-5.4-1.4s-3.1.2-4.6.6c-1.5.4-3,1-4.3,1.8l-.6-3.2c.9-.5,1.9-1,3.1-1.4,1.2-.4,2.4-.7,3.7-1,1.3-.2,2.5-.4,3.7-.4,3.5,0,6,.8,7.8,2.3,1.7,1.5,2.6,3.8,2.6,6.9v17.1h-2.9l-1.3-8.6ZM1070.8,1197.6c2.2,0,4-.5,5.3-1.4,1.3-.9,1.9-2.2,1.9-3.7v-.7c0-1.5-.6-2.6-1.8-3.5-1.2-.8-2.9-1.2-5.1-1.2s-3.6.4-4.7,1.1c-1.1.8-1.6,2-1.6,3.8v.6c0,1.6.5,2.9,1.6,3.7,1.1.8,2.5,1.3,4.5,1.3Z"></path><path class="st8" d="M1099.3,1200.3c-3.4,0-6-.6-7.8-1.9-1.8-1.3-2.9-3.3-3.3-6h4.3c.2,1.6.8,2.9,2,3.7,1.1.8,2.7,1.2,4.8,1.2s3.6-.3,4.7-1c1.1-.7,1.7-1.7,1.7-3s-.3-1.8-.9-2.4-1.4-1-2.4-1.3-2.1-.5-3.3-.7c-1.2-.2-2.4-.5-3.6-.7-1.2-.3-2.3-.7-3.3-1.2-1-.5-1.8-1.3-2.4-2.2-.6-.9-.9-2.2-.9-3.8,0-2.4.9-4.2,2.7-5.4,1.8-1.2,4.5-1.8,7.9-1.8s4,.3,5.4.8c1.5.6,2.7,1.4,3.6,2.5.9,1.1,1.4,2.5,1.7,4.1l-4.3.2c-.1-1.5-.7-2.6-1.8-3.4-1.1-.8-2.5-1.2-4.5-1.2s-3.6.4-4.7,1.1c-1.1.7-1.7,1.7-1.7,3s.3,1.9.9,2.4,1.4,1,2.4,1.3c1,.3,2.1.6,3.3.8,1.2.2,2.4.5,3.6.7,1.2.3,2.3.7,3.3,1.2,1,.5,1.8,1.3,2.4,2.2.6.9.9,2.2.9,3.7,0,2.3-.9,4.1-2.7,5.3-1.8,1.2-4.5,1.8-8,1.8Z"></path><path class="st8" d="M1127.2,1200.4c-2.5,0-4.6-.4-6.4-1.3s-3.1-2.1-4-3.7c-.9-1.6-1.4-3.6-1.4-6v-4.7c0-2.3.5-4.2,1.5-5.9,1-1.6,2.4-2.9,4.2-3.8,1.8-.9,4-1.3,6.5-1.3,3.8,0,6.8,1,8.9,3s3.1,4.9,3.1,8.7v2.9h-20.8v-2.7h17.4l-.7,1.1v-2.3c0-2.3-.7-4.2-2.1-5.5-1.4-1.3-3.3-2-5.8-2s-4.5.7-6,2c-1.4,1.3-2.1,3.2-2.1,5.7v5.1c0,2.4.7,4.2,2,5.5,1.4,1.3,3.3,1.9,5.7,1.9s4-.4,5.4-1.3c1.4-.9,2.2-2.2,2.5-3.8l4,.2c-.6,2.6-1.9,4.6-4,6-2.1,1.4-4.8,2.1-8,2.1Z"></path><path class="st8" d="M1156,1200.3c-3.4,0-6-.6-7.8-1.9-1.8-1.3-2.9-3.3-3.3-6h4.3c.2,1.6.8,2.9,2,3.7,1.1.8,2.7,1.2,4.8,1.2s3.6-.3,4.7-1c1.1-.7,1.7-1.7,1.7-3s-.3-1.8-.9-2.4-1.4-1-2.4-1.3c-1-.3-2.1-.5-3.3-.7-1.2-.2-2.4-.5-3.6-.7-1.2-.3-2.3-.7-3.3-1.2s-1.8-1.3-2.4-2.2c-.6-.9-.9-2.2-.9-3.8,0-2.4.9-4.2,2.7-5.4,1.8-1.2,4.5-1.8,7.9-1.8s4,.3,5.4.8c1.5.6,2.7,1.4,3.6,2.5.9,1.1,1.4,2.5,1.7,4.1l-4.3.2c-.1-1.5-.7-2.6-1.8-3.4s-2.5-1.2-4.5-1.2-3.6.4-4.7,1.1c-1.1.7-1.7,1.7-1.7,3s.3,1.9.9,2.4,1.4,1,2.4,1.3c1,.3,2.1.6,3.3.8,1.2.2,2.4.5,3.6.7s2.3.7,3.3,1.2c1,.5,1.8,1.3,2.4,2.2.6.9.9,2.2.9,3.7,0,2.3-.9,4.1-2.7,5.3-1.8,1.2-4.5,1.8-8,1.8Z"></path></g><path class="st13" d="M1050.1,863.4v225.1h-9.2v-225.1h9.2ZM1031.8,868l13.8-27.5,13.8,27.5h-27.5ZM1059.2,1083.9l-13.8,27.5-13.8-27.5h27.5Z"></path><path class="st13" d="M1105.1,863.4v117.9h-9.2v-117.9h9.2ZM1086.8,868l13.8-27.5,13.8,27.5h-27.5ZM1114.2,976.7l-13.8,27.5-13.8-27.5h27.5Z"></path><path class="st13" d="M1160.1,863.4v68.5h-9.2v-68.5h9.2ZM1141.8,868l13.8-27.5,13.8,27.5h-27.5ZM1169.2,927.3l-13.8,27.5-13.8-27.5h27.5Z"></path><path class="st11" d="M1653.8,626.5h-216.3"></path><path class="st8" d="M1543.1,408.4h-9.2v-12.6h9.2v12.6ZM1524.8,408.4h-9.2v-12.6h9.2v12.6ZM1506.4,408.4h-9.2v-12.6h9.2v12.6ZM1488.1,408.4h-9.2v-12.6h9.2v12.6ZM1469.8,408.4h-9.2v-12.6h9.2v12.6ZM1451.4,408.4h-9.2v-12.6h9.2v12.6ZM1433.1,408.4h-9.2v-12.6h9.2v12.6ZM1671.4,408.4h-9.2v-12.6h9.2v12.6ZM1653.1,408.4h-9.2v-12.6h9.2v12.6ZM1634.8,408.4h-9.2v-12.6h9.2v12.6ZM1616.4,408.4h-9.2v-12.6h9.2v12.6ZM1598.1,408.4h-9.2v-12.6h9.2v12.6ZM1579.8,408.4h-9.2v-12.6h9.2v12.6ZM1561.4,408.4h-9.2v-12.6h9.2v12.6Z"></path><path class="st8" d="M1671.4,846.5h-9.2v-12.3h9.2v12.3ZM1653.1,846.5h-9.2v-12.3h9.2v12.3ZM1634.8,846.5h-9.2v-12.3h9.2v12.3ZM1616.4,846.5h-9.2v-12.3h9.2v12.3ZM1598.1,846.5h-9.2v-12.3h9.2v12.3ZM1579.8,846.5h-9.2v-12.3h9.2v12.3ZM1561.4,846.5h-9.2v-12.3h9.2v12.3ZM1543.1,846.5h-9.2v-12.3h9.2v12.3ZM1524.8,846.5h-9.2v-12.3h9.2v12.3ZM1506.4,846.5h-9.2v-12.3h9.2v12.3ZM1488.1,846.5h-9.2v-12.3h9.2v12.3ZM1469.8,846.5h-9.2v-12.3h9.2v12.3ZM1451.4,846.5h-9.2v-12.3h9.2v12.3ZM1433.1,846.5h-9.2v-12.3h9.2v12.3Z"></path></svg> 